<svg height="511pt" viewBox="0 -54 511.99987 511" width="511pt" xmlns="http://www.w3.org/2000/svg"><g fill="#a5f6ff"><path d="m507.554688 104.695312c-67.191407-67.191406-156.53125-104.195312-251.554688-104.195312-95.027344 0-184.363281 37.003906-251.554688 104.195312-5.925781 5.929688-5.925781 15.539063 0 21.464844l37.648438 37.652344c5.929688 5.925781 15.539062 5.925781 21.464844 0 51.316406-51.316406 119.660156-79.578125 192.441406-79.578125s141.125 28.261719 192.441406 79.578125c2.960938 2.960938 6.847656 4.445312 10.730469 4.445312s7.769531-1.484374 10.730469-4.445312l37.652344-37.652344c5.925781-5.925781 5.925781-15.535156 0-21.464844zm0 0"/><path d="m256 103.683594c-67.464844 0-130.890625 26.269531-178.59375 73.972656-5.925781 5.929688-5.925781 15.539062 0 21.464844l37.648438 37.652344c2.847656 2.84375 6.707031 4.445312 10.734374 4.445312 4.023438 0 7.886719-1.597656 10.730469-4.445312 31.859375-31.859376 74.289063-49.40625 119.476563-49.40625 45.191406 0 87.621094 17.546874 119.480468 49.40625 2.964844 2.960937 6.847657 4.445312 10.730469 4.445312 3.886719 0 7.769531-1.484375 10.734375-4.445312l37.648438-37.652344c5.929687-5.925782 5.929687-15.535156 0-21.464844-47.699219-47.703125-111.125-73.972656-178.589844-73.972656zm0 0"/><path d="m150.742188 250.992188c-2.847657 2.847656-4.445313 6.707031-4.445313 10.734374 0 4.023438 1.597656 7.886719 4.445313 10.730469l37.648437 37.648438c5.925781 5.929687 15.535156 5.929687 21.464844 0 25.445312-25.441407 66.84375-25.441407 92.289062 0 2.964844 2.964843 6.847657 4.445312 10.730469 4.445312 3.886719 0 7.769531-1.480469 10.734375-4.445312l37.648437-37.648438c2.847657-2.847656 4.445313-6.707031 4.445313-10.730469 0-4.027343-1.597656-7.886718-4.445313-10.734374-58.035156-58.035157-152.472656-58.035157-210.515624 0zm0 0"/></g><path d="m256 309.453125c-25.804688 0-46.796875 20.996094-46.796875 46.796875 0 25.804688 20.992187 46.796875 46.796875 46.796875s46.796875-20.992187 46.796875-46.796875c0-25.800781-20.992187-46.796875-46.796875-46.796875zm0 0" fill="#7e8596"/><path d="m302.796875 356.25c0-25.800781-20.992187-46.796875-46.796875-46.796875v93.59375c25.804688 0 46.796875-20.992187 46.796875-46.796875zm0 0" fill="#555a66"/><path d="m256 207.464844v83.5625c16.710938 0 33.421875 6.359375 46.144531 19.082031 2.960938 2.960937 6.847657 4.445313 10.730469 4.445313s7.769531-1.484376 10.730469-4.445313l37.652343-37.652344c2.84375-2.84375 4.445313-6.707031 4.445313-10.730469 0-4.027343-1.597656-7.886718-4.445313-10.730468-29.019531-29.019532-67.136718-43.53125-105.257812-43.53125zm0 0" fill="#38ebff"/><path d="m256 103.683594v83.683594c45.1875 0 87.621094 17.546874 119.476562 49.40625 2.964844 2.960937 6.851563 4.445312 10.734376 4.445312 3.882812 0 7.769531-1.484375 10.730468-4.445312l37.648438-37.652344c5.929687-5.925782 5.929687-15.535156 0-21.464844-47.699219-47.703125-111.125-73.972656-178.589844-73.972656zm0 0" fill="#38ebff"/><path d="m256 .5v83.734375c72.78125 0 141.125 28.261719 192.441406 79.578125 2.960938 2.960938 6.847656 4.445312 10.730469 4.445312s7.769531-1.484374 10.730469-4.445312l37.652344-37.652344c5.925781-5.925781 5.925781-15.535156 0-21.464844-67.191407-67.191406-156.527344-104.195312-251.554688-104.195312zm0 0" fill="#38ebff"/></svg>